Coordinates
version=1
nRows=17
nColumns=24
inDegrees=yes

Units are S.I. units (second, meters, Newtons, ...)
Angles are in degrees.

endheader
time	pelvis_tilt	pelvis_list	pelvis_rotation	pelvis_tx	pelvis_ty	pelvis_tz	hip_flexion_r	hip_adduction_r	hip_rotation_r	knee_angle_r	ankle_angle_r	subtalar_angle_r	mtp_angle_r	hip_flexion_l	hip_adduction_l	hip_rotation_l	knee_angle_l	ankle_angle_l	subtalar_angle_l	mtp_angle_l	lumbar_extension	lumbar_bending	lumbar_rotation
      0.83300000	      0.57751858	      3.35745667	     -0.18694132	     -0.51149943	      1.02354336	      0.27596289	      7.06173356	      1.42643154	      0.68791331	    -11.57400783	      4.44812648	    -11.91775461	      5.74108094	     13.43975587	      1.57531073	     -5.00037250	    -64.00217266	      2.61659522	    -15.01377661	      0.84028465	     -3.54768177	     -2.85711585	      3.49111917
      0.83716667	      0.58131304	      3.44539819	     -0.41834578	     -0.50641159	      1.02414325	      0.27640005	      6.60173060	      1.34376172	      0.79440634	    -11.25883620	      4.59257884	    -11.72135517	      5.77095271	     13.92646321	      1.63803169	     -5.16260222	    -63.60767118	      2.89361273	    -14.69841987	      0.79452728	     -3.57081050	     -2.94717065	      3.96328179
      0.84133333	      0.60751322	      3.54935647	     -0.66679740	     -0.50132900	      1.02476320	      0.27684657	      6.12033970	      1.24076436	      0.91255651	    -10.94124366	      4.68060572	    -11.53109569	      5.79731117	     14.36920769	      1.71105572	     -5.35001582	    -63.14702330	      3.14392741	    -14.35607671	      0.76527676	     -3.61412545	     -3.06357534	      4.27963685
      0.84550000	      0.61362316	      3.65939682	     -0.91673540	     -0.49626221	      1.02530541	      0.27728534	      5.66704925	      1.12721146	      1.02881960	    -10.63305818	      4.77553494	    -11.32478951	      5.82814506	     14.82570406	      1.78844781	     -5.53919090	    -62.64566929	      3.38027634	    -13.99532158	      0.74102503	     -3.64065045	     -3.18890904	      4.62524014
      0.84966667	      0.64257116	      3.75727134	     -1.17008645	     -0.49121129	      1.02584411	      0.27771300	      5.19054403	      1.02303108	      1.14016398	    -10.32317189	      4.84937166	    -11.13544929	      5.85399273	     15.24491367	      1.85120718	     -5.72721560	    -62.09847377	      3.59940988	    -13.60941734	      0.73021358	     -3.67903532	     -3.28478042	      4.90655943
      0.85383333	      0.63896761	      3.86154809	     -1.41994256	     -0.48617364	      1.02628927	      0.27813476	      4.75440088	      0.90954694	      1.25407291	    -10.02089552	      4.93221406	    -10.94297806	      5.87873924	     15.69262650	      1.91584077	     -5.91875218	    -61.51413812	      3.79706907	    -13.21334872	      0.72669542	     -3.69214914	     -3.39949147	      5.19821237
      0.85800000	      0.66474184	      3.94181190	     -1.66614238	     -0.48115578	      1.02671946	      0.27855502	      4.28013800	      0.81953762	      1.36844751	     -9.70375367	      5.01917355	    -10.75406989	      5.90422644	     16.10100882	      1.95042457	     -6.10416898	    -60.90282067	      4.00047100	    -12.78845910	      0.72873950	     -3.74097046	     -3.49239273	      5.51009120
      0.86216667	      0.68495437	      3.99743456	     -1.89819404	     -0.47616613	      1.02707107	      0.27895519	      3.80872477	      0.75490612	      1.48405643	     -9.38209594	      5.13842643	    -10.58546833	      5.94223219	     16.51571400	      1.95586057	     -6.27699402	    -60.27794330	      4.21273726	    -12.35363983	      0.73510296	     -3.79759340	     -3.55908893	      5.91349957
      0.86633333	      0.67418708	      4.09030185	     -2.14975098	     -0.47117485	      1.02737516	      0.27935597	      3.39161047	      0.64636677	      1.60452740	     -9.09324874	      5.19790888	    -10.42005980	      5.96536405	     16.93714789	      2.00294840	     -6.46683438	    -59.57203958	      4.35271529	    -11.95435158	      0.74410728	     -3.79810975	     -3.65930086	      6.13639301
      0.87050000	      0.70960912	      4.14256081	     -2.37897568	     -0.46620447	      1.02767017	      0.27973936	      2.90645780	      0.57887711	      1.72016745	     -8.77441773	      5.32397177	    -10.25821840	      6.00264899	     17.30844575	      2.00225853	     -6.63911757	    -58.86342133	      4.53983112	    -11.51262273	      0.76222704	     -3.87099025	     -3.72043761	      6.52374411
      0.87466667	      0.71748202	      4.21230338	     -2.61773159	     -0.46125051	      1.02790834	      0.28011237	      2.46885715	      0.48937088	      1.83996830	     -8.48292179	      5.38408046	    -10.11146629	      6.02763201	     17.68984610	      2.02191391	     -6.81861629	    -58.09081394	      4.65882601	    -11.11897944	      0.77840476	     -3.90100403	     -3.79676769	      6.75364477
      0.87883333	      0.72275964	      4.24841600	     -2.83954799	     -0.45630170	      1.02806764	      0.28047898	      2.01798037	      0.43711624	      1.96789529	     -8.16531208	      5.49813918	     -9.98547541	      6.06322534	     18.07144697	      2.00210388	     -6.98104943	    -57.31523677	      4.81591662	    -10.69522552	      0.80521248	     -3.94057658	     -3.84138242	      7.10903636
      0.88300000	      0.73674428	      4.29280828	     -3.06349200	     -0.45137287	      1.02821483	      0.28083045	      1.56661282	      0.37153422	      2.09679942	     -7.86095775	      5.58158020	     -9.86831987	      6.09795788	     18.42512751	      1.99517337	     -7.14167783	    -56.48400717	      4.93061976	    -10.31369953	      0.83549663	     -3.98774846	     -3.89149540	      7.39794800
      0.88716667	      0.73273027	      4.33016801	     -3.27854160	     -0.44645545	      1.02828349	      0.28116232	      1.13825895	      0.31228128	      2.22143459	     -7.56453752	      5.67147522	     -9.76044490	      6.13030297	     18.78816849	      1.98009085	     -7.29689437	    -55.62328740	      5.03193975	     -9.93921676	      0.86799252	     -4.01595272	     -3.93439430	      7.66518632
      0.89133333	      0.72300165	      4.37546301	     -3.49098746	     -0.44153867	      1.02832158	      0.28147838	      0.72569221	      0.24059303	      2.33767930	     -7.28605863	      5.73544791	     -9.64965359	      6.15011637	     19.13748328	      1.97895208	     -7.44189816	    -54.70940536	      5.09046370	     -9.60504701	      0.88985899	     -4.03350365	     -3.98874100	      7.84522979
      0.89550000	      0.75218049	      4.38789668	     -3.68465258	     -0.43663271	      1.02836830	      0.28178046	      0.24737728	      0.20225951	      2.46154825	     -6.96581040	      5.84445902	     -9.56819235	      6.17970220	     19.43589118	      1.94424932	     -7.57162991	    -53.78029118	      5.18020548	     -9.25571666	      0.92730077	     -4.11067582	     -4.00487288	      8.16311562
      0.89966667	      0.71602052	      4.41137920	     -3.87303836	     -0.43173252	      1.02827463	      0.28205421	     -0.13659918	      0.15261068	      2.57375935	     -6.69223961	      5.91003126	     -9.47811201	      6.19646468	     19.79023741	      1.92518436	     -7.68835416	    -52.80753915	      5.21056990	     -8.95300638	      0.95042474	     -4.10247844	     -4.03370495	      8.32159609
